<?xml version="1.0" standalone="no"?><!DOCTYPE svg PUBLIC "-//W3C//DTD SVG 1.1//EN" "http://www.w3.org/Graphics/SVG/1.1/DTD/svg11.dtd"><svg t="1749710741658" class="icon" viewBox="0 0 1024 1024" version="1.1" xmlns="http://www.w3.org/2000/svg" p-id="11934" xmlns:xlink="http://www.w3.org/1999/xlink" width="48" height="48"><path d="M803.456 138.56c19.584-2.112 41.472 1.344 58.56 17.728 17.216 16.448 21.632 38.144 20.352 57.792-1.28 19.072-7.872 39.232-16.64 58.752-17.664 39.296-48.128 84.544-82.176 129.088-68.608 89.664-157.184 183.168-205.12 232.192a82.112 82.112 0 0 1-115.648 1.536l-62.08-59.52a82.112 82.112 0 0 1-3.584-115.52c46.848-50.048 136.448-142.656 222.976-215.04 43.008-36.032 86.912-68.48 125.376-87.808 19.136-9.6 38.976-17.152 57.984-19.2z m-142.272 156.032C577.728 364.48 490.24 454.72 443.84 504.32a18.112 18.112 0 0 0 1.088 25.6l62.08 59.52a18.112 18.112 0 0 0 25.6-0.064c47.616-48.64 133.952-139.904 200.064-226.304 33.28-43.52 60.16-84.096 74.688-116.48 7.36-16.32 10.624-28.48 11.136-36.608a19.712 19.712 0 0 0-0.64-7.296v-0.128h-0.064l-0.128-0.064a19.712 19.712 0 0 0-7.296-0.32c-8.128 0.896-20.096 4.672-36.096 12.736-31.744 16-71.104 44.544-113.088 79.68zM309.632 624.384l106.88 106.752c-27.072 18.496-60.48 36.48-93.76 43.136-22.336 4.48-41.92 3.2-59.392-4.224a105.472 105.472 0 0 1-36.032-26.56c11.392-5.12 23.04-11.52 34.176-19.52 19.2-13.76 28.544-32.704 33.152-44.032 5.12-12.352 8.32-25.344 10.624-35.392 1.856-8 3.2-14.592 4.352-20.16z m17.344-73.088a24.96 24.96 0 0 0-17.536-7.936c-15.04 0.064-42.56 4.352-53.248 32.64-4.288 11.2-7.168 25.152-10.048 39.04-4.992 24.32-9.984 48.32-21.952 56.96a169.216 169.216 0 0 1-51.776 23.488c-21.184 6.016-34.816 29.952-23.488 48.832 107.008 178.624 276.864 64.32 339.136 12.928a29.44 29.44 0 0 0 1.216-43.84L326.976 551.296z" p-id="11935" fill="#000000"></path></svg>