<?xml version="1.0" standalone="no"?><!DOCTYPE svg PUBLIC "-//W3C//DTD SVG 1.1//EN" "http://www.w3.org/Graphics/SVG/1.1/DTD/svg11.dtd"><svg t="1749710359700" class="icon" viewBox="0 0 1024 1024" version="1.1" xmlns="http://www.w3.org/2000/svg" p-id="9606" xmlns:xlink="http://www.w3.org/1999/xlink" width="48" height="48"><path d="M474.794667 335.616l52.548266 26.4192 358.536534 180.394667 63.453866 31.914666-64.580266 29.610667-82.807467 37.922133 146.858667 226.1504-171.758934 111.547734-148.002133-227.8912-73.079467 65.706666-53.128533 47.786667-3.771733-71.355733-21.162667-399.479467-3.089067-58.7264z m74.376533 113.834667l14.267733 269.4144 49.664-44.6464 29.696-26.709334 21.742934 33.501867 132.573866 204.117333 57.2416-37.188266-131.191466-202.018134-21.538134-33.160533 35.9424-16.469333 54.152534-24.814934-242.551467-122.026666zM938.666667 85.333333v350.754134h-68.266667V153.6H153.6v563.2h245.418667v68.266667H85.333333V85.333333h853.333334z" p-id="9607" fill="#000000"></path></svg>