<svg id="图层_1" data-name="图层 1" xmlns="http://www.w3.org/2000/svg" viewBox="0 0 75.99 67.93"><title>收藏图标</title><path d="M31.76,19.46a19.23,19.23,0,0,0-14,6,21.14,21.14,0,0,0,0,29L48.54,86.81a2.09,2.09,0,0,0,2.9,0Q66.85,70.69,82.22,54.56a21.14,21.14,0,0,0,0-29,19.2,19.2,0,0,0-28,0L50,29.93l-4.25-4.44a19,19,0,0,0-14-6Zm0,3.94a15.36,15.36,0,0,1,11.12,4.87l5.69,6a2.07,2.07,0,0,0,2.9,0l5.66-5.93a15.08,15.08,0,0,1,22.22,0,17.15,17.15,0,0,1,0,23.5L50,82.52,20.66,51.77a17.15,17.15,0,0,1,0-23.5A15.3,15.3,0,0,1,31.76,23.4Z" transform="translate(-12 -19.46)"/></svg>