<svg id="图层_1" data-name="图层 1" xmlns="http://www.w3.org/2000/svg" viewBox="0 0 52.19 70.64"><defs><style>.cls-1{fill:none;stroke:currentColor;stroke-width:3px;}</style></defs><title>社区探索</title><line class="cls-1" x1="17.1" y1="61.26" x2="35.2" y2="61.26"/><line class="cls-1" x1="26.1" y1="4.55" x2="26.1"/><line class="cls-1" x1="47.44" y1="14.43" x2="51.13" y2="10.73"/><line class="cls-1" x1="1.06" y1="10.73" x2="4.75" y2="14.43"/><line class="cls-1" x1="26.15" y1="55.24" x2="26.15" y2="37.94"/><line class="cls-1" x1="26.14" y1="37.94" x2="32.25" y2="31.8"/><line class="cls-1" x1="26.05" y1="37.94" x2="19.94" y2="31.8"/><path class="cls-1" d="M221.62,301.69a19.88,19.88,0,0,0-20.05,19.67,17.4,17.4,0,0,0,3.62,11.28c.84.91,1.7,1.72,2.52,2.5,2.8,2.64,5.46,5.17,6.26,10.49h15.29c.81-5.36,3.47-7.86,6.28-10.51.83-.77,1.68-1.57,2.48-2.43,2.57-3,3.66-6.42,3.66-11.33A19.89,19.89,0,0,0,221.62,301.69Z" transform="translate(-195.48 -290.39)"/><path class="cls-1" d="M214.8,357.2h2.66a4.88,4.88,0,0,0,8.33,0h2.66" transform="translate(-195.48 -290.39)"/></svg>