<svg id="图层_1" data-name="图层 1" xmlns="http://www.w3.org/2000/svg" viewBox="0 0 67.86 89.97"><title>删除图标</title><path d="M77.18,23.33H59.54V17a4.69,4.69,0,0,0-4.69-4.69H41.17A4.69,4.69,0,0,0,36.48,17v6.29H18.84a4.78,4.78,0,0,0-4.77,4.77v7.17A4.78,4.78,0,0,0,18.84,40h.58l5,49.4c.76,7.46,6.24,12.88,13,12.88h21.1c6.79,0,12.27-5.42,13-12.88l5-49.4h.58a4.78,4.78,0,0,0,4.77-4.77V28.1A4.75,4.75,0,0,0,77.18,23.33ZM39.53,17a1.65,1.65,0,0,1,1.64-1.64H54.86A1.64,1.64,0,0,1,56.5,17v6.29h-17Zm29,72.09c-.6,5.87-4.8,10.14-10,10.14H37.46c-5.19,0-9.39-4.26-10-10.14L22.49,40h51ZM78.9,35.27A1.72,1.72,0,0,1,77.18,37H18.85a1.72,1.72,0,0,1-1.72-1.72V28.1a1.72,1.72,0,0,1,1.72-1.72H77.19a1.72,1.72,0,0,1,1.72,1.72v7.17ZM46.49,81.34V53a1.52,1.52,0,1,1,3,0V81.34a1.52,1.52,0,1,1-3,0Zm-11.34,0V53a1.52,1.52,0,1,1,3,0V81.34a1.52,1.52,0,1,1-3,0Zm22.67,0V53a1.52,1.52,0,1,1,3,0V81.34a1.52,1.52,0,1,1-3,0Z" transform="translate(-14.07 -12.35)"/></svg>