<svg id="图层_1" data-name="图层 1" xmlns="http://www.w3.org/2000/svg" viewBox="0 0 69.2 54.18"><defs><style>.cls-1{fill:none;}.cls-1,.cls-2{stroke:#1b1c1a;stroke-miterlimit:10;stroke-width:3px;}.cls-2{fill:#455155;}</style></defs><title>擦除</title><path class="cls-1" d="M209.89,350.22l-10-10a5,5,0,0,1,0-7.08l31.57-31.56a5,5,0,0,1,7.07,0l14.69,14.7a5,5,0,0,1,0,7.07l-26.87,26.87Z" transform="translate(-186.97 -298.63)"/><line class="cls-1" x1="32.85" y1="21.52" x2="51.18" y2="39.64"/><path class="cls-2" d="M192.33,349.13a.78.78,0,1,1-.78-.78A.78.78,0,0,1,192.33,349.13Z" transform="translate(-186.97 -298.63)"/><path class="cls-2" d="M190,342.82a.78.78,0,1,1-.78-.78A.78.78,0,0,1,190,342.82Z" transform="translate(-186.97 -298.63)"/><circle class="cls-2" cx="13.12" cy="51.9" r="0.78"/></svg>