<svg id="图层_1" data-name="图层 1" xmlns="http://www.w3.org/2000/svg" viewBox="0 0 60.13 61.57"><defs><style>.cls-1,.cls-2{fill:none;stroke:#1b1c1a;stroke-linejoin:round;stroke-width:3px;}.cls-2{stroke-linecap:round;}</style></defs><title>涂抹</title><path class="cls-1" d="M231.54,324.17s.74,6,1.19,7.79a11.53,11.53,0,0,0,2.89,4.7" transform="translate(-191.51 -294.93)"/><path class="cls-1" d="M228.6,338.14a8.09,8.09,0,0,0-1.5-.54c-1.81-.45-7.79-1.2-7.79-1.2" transform="translate(-191.51 -294.93)"/><rect class="cls-2" x="201.98" y="325.17" width="42.43" height="5.78" transform="translate(-358.11 -41.02) rotate(-45)"/><path class="cls-1" d="M191.71,330.25A27.12,27.12,0,0,1,205.22,336" transform="translate(-191.51 -294.93)"/><path class="cls-1" d="M202,296.41a59.1,59.1,0,0,1,28.91,13.85" transform="translate(-191.51 -294.93)"/><line class="cls-2" x1="22.2" y1="14.82" x2="22.2" y2="21.35"/><line class="cls-2" x1="25.47" y1="18.09" x2="18.94" y2="18.09"/><line class="cls-2" x1="8.71" y1="18.53" x2="8.71" y2="28.08"/><line class="cls-2" x1="13.49" y1="23.31" x2="3.94" y2="23.31"/><path class="cls-1" d="M231.41,341.16l12.65,12.65a3.47,3.47,0,1,0,4.88-4.89L236.3,336.28Z" transform="translate(-191.51 -294.93)"/></svg>