<svg id="图层_1" data-name="图层 1" xmlns="http://www.w3.org/2000/svg" viewBox="0 0 96.95 111.95" width="68" height="78"><defs><style>.cls-1{fill:currentColor;}</style></defs><title>图标</title><path class="cls-1" d="M249,399.36v46.4a1.91,1.91,0,0,0,2.9,1.63l21-12.74a6,6,0,0,0,2.91-5.17V405.27a2.85,2.85,0,0,0-2.28-2.79l-22.76-4.59A1.5,1.5,0,0,0,249,399.36Z" transform="translate(-248.96 -365.34)"/><path class="cls-1" d="M255.34,389.23l41.94-23.38a4,4,0,0,1,4,0L329.84,382a1.26,1.26,0,0,1,0,2.19L310.51,395a15.33,15.33,0,0,1-7.54,2H289.29a15.57,15.57,0,0,1-3.26-.35L255.46,390A.43.43,0,0,1,255.34,389.23Z" transform="translate(-248.96 -365.34)"/><path class="cls-1" d="M338.35,454.4l-41.93,22.38a4.07,4.07,0,0,1-4,0l-28.6-16.12a1.26,1.26,0,0,1,0-2.19l19.32-10.87a15.46,15.46,0,0,1,7.55-2H304.4a15,15,0,0,1,3.27.35l30.57,7.63A.43.43,0,0,1,338.35,454.4Z" transform="translate(-248.96 -365.34)"/><path class="cls-1" d="M297.6,421.77l47.23-29.06a.71.71,0,0,1,1.08.6v51a3.09,3.09,0,0,1-3.79,3l-22.84-5.38V431.43a8.54,8.54,0,0,0-3.58-6.95h0a8.55,8.55,0,0,0-4.25-1.56Z" transform="translate(-248.96 -365.34)"/><path class="cls-1" d="M265.44,459.68" transform="translate(-248.96 -365.34)"/></svg>