<svg id="图层_1" data-name="图层 1" xmlns="http://www.w3.org/2000/svg" viewBox="0 0 68.01 56.61"><defs><style>.cls-1{fill:none;stroke:currentColor;stroke-linejoin:round;stroke-width:3px;}.cls-2{fill:currentColor;}</style></defs><title>图转视频</title><polyline class="cls-1" points="59.05 27.28 59.05 55.1 1.5 55.11 1.5 10.17 43.47 10.16"/><path class="cls-2" d="M227.26,329.81,212,321a.83.83,0,0,0-1.25.72v17.66a.83.83,0,0,0,1.25.72l15.3-8.83A.83.83,0,0,0,227.26,329.81Z" transform="translate(-187.55 -297.43)"/><ellipse class="cls-2" cx="58.02" cy="11.09" rx="6.88" ry="7.64"/><path class="cls-2" d="M245.44,319.52,244.26,317a15.47,15.47,0,0,0-6.29-7l-2.3-1.3a.18.18,0,0,1,0-.3l2.3-1.31a15.47,15.47,0,0,0,6.29-7l1.18-2.55a.15.15,0,0,1,.27,0l1.18,2.55a15.44,15.44,0,0,0,6.3,7l2.29,1.31a.18.18,0,0,1,0,.3l-2.3,1.3a15.47,15.47,0,0,0-6.29,7l-1.18,2.56A.15.15,0,0,1,245.44,319.52Zm-3.55-10.87a13.55,13.55,0,0,1,3.56,4,.14.14,0,0,0,.25,0,13.55,13.55,0,0,1,3.56-4,.17.17,0,0,0,0-.27,13.3,13.3,0,0,1-3.56-4,.15.15,0,0,0-.25,0,13.3,13.3,0,0,1-3.56,4A.17.17,0,0,0,241.89,308.65Z" transform="translate(-187.55 -297.43)"/></svg>