<?xml version="1.0" standalone="no"?><!DOCTYPE svg PUBLIC "-//W3C//DTD SVG 1.1//EN" "http://www.w3.org/Graphics/SVG/1.1/DTD/svg11.dtd"><svg t="1749710566351" class="icon" viewBox="0 0 1024 1024" version="1.1" xmlns="http://www.w3.org/2000/svg" p-id="10768" xmlns:xlink="http://www.w3.org/1999/xlink" width="48" height="48"><path d="M48.753778 17.749333l564.622222 205.312a28.444444 28.444444 0 0 0 23.893333-2.048L972.8 29.297778a28.444444 28.444444 0 0 1 42.211556 29.013333l-87.324445 567.409778L995.555556 625.777778a28.444444 28.444444 0 0 1 28.444444 28.444444v227.555556a28.444444 28.444444 0 0 1-28.444444 28.444444h-227.555556a28.444444 28.444444 0 0 1-28.444444-28.444444v-71.111111l-480.711112 200.248889a28.444444 28.444444 0 0 1-38.684444-20.081778L11.320889 50.631111A28.444444 28.444444 0 0 1 48.753778 17.749333z m29.297778 71.111111l190.293333 856.519112L739.555556 748.999111V654.222222a28.444444 28.444444 0 0 1 28.444444-28.444444h102.172444l79.644445-517.859556-284.387556 162.474667a85.333333 85.333333 0 0 1-71.509333 6.144L78.051556 88.917333zM967.111111 682.666667h-170.666667v170.666666h170.666667v-170.666666z" fill="#409EFF" p-id="10769"></path></svg>