<svg id="图层_1" data-name="图层 1" xmlns="http://www.w3.org/2000/svg" viewBox="0 0 19.5 19.5"><title>问号图标</title><path d="M11.71,5.58a9.75,9.75,0,1,0,9.75,9.75A9.76,9.76,0,0,0,11.71,5.58Zm0,18A8.25,8.25,0,1,1,20,15.33,8.25,8.25,0,0,1,11.71,23.58Z" transform="translate(-1.96 -5.58)"/><path d="M12.3,10.13a3.26,3.26,0,0,0-3.78,2.62,2.93,2.93,0,0,0-.06.58.75.75,0,0,0,1.5,0A1.76,1.76,0,1,1,12.38,15,2.38,2.38,0,0,0,11,17.15v.77a.75.75,0,0,0,1.5,0v-.77a.87.87,0,0,1,.49-.81,3.25,3.25,0,0,0-.65-6.2Z" transform="translate(-1.96 -5.58)"/><path d="M11.71,19.17a.83.83,0,0,0-.83.83.84.84,0,0,0,.83.84.85.85,0,0,0,.84-.84h0a.83.83,0,0,0-.83-.83Z" transform="translate(-1.96 -5.58)"/></svg>