<svg id="图层_1" data-name="图层 1" xmlns="http://www.w3.org/2000/svg" viewBox="0 0 59.96 59.96"><title>智能选取</title><path d="M9.26,68.48a3,3,0,0,0,2.12-.88L48.15,30.83a3,3,0,0,0,0-4.24l-4.24-4.25a3,3,0,0,0-4.24,0L2.9,59.11a3,3,0,0,0,0,4.25L7.14,67.6A3,3,0,0,0,9.26,68.48ZM41.08,23.76a1,1,0,0,1,1.42,0L46.74,28a1,1,0,0,1,0,1.41L38.25,37.9,32.6,32.24ZM4.31,60.53,31.18,33.66l5.66,5.65L10,66.18a1,1,0,0,1-1.42,0L4.31,61.94A1,1,0,0,1,4.31,60.53Z" transform="translate(-2.02 -8.52)"/><path d="M29.52,21.47A6.5,6.5,0,0,0,36,15c-.3-8.6-12.69-8.6-13,0A6.51,6.51,0,0,0,29.52,21.47Zm0-11a4.5,4.5,0,1,1-4.46,4.46A4.49,4.49,0,0,1,29.52,10.47Z" transform="translate(-2.02 -8.52)"/><path d="M24,32.47a4,4,0,1,0-3.95-4A4,4,0,0,0,24,32.47Zm0-6a2,2,0,1,1-2,2A2,2,0,0,1,24,26.47Z" transform="translate(-2.02 -8.52)"/><path d="M46,18.47a4,4,0,1,0-4-4A4,4,0,0,0,46,18.47Zm0-6a2,2,0,1,1-2,2A2,2,0,0,1,46,12.47Z" transform="translate(-2.02 -8.52)"/><path d="M57,17.47c-6.6.21-6.6,9.79,0,10C63.63,27.26,63.63,17.68,57,17.47Zm0,8a3,3,0,1,1,3-3A3,3,0,0,1,57,25.47Z" transform="translate(-2.02 -8.52)"/><path d="M54.52,33.47A6.51,6.51,0,0,0,48,40c.31,8.6,12.7,8.6,13,0A6.5,6.5,0,0,0,54.52,33.47Zm0,11A4.5,4.5,0,1,1,59,40,4.5,4.5,0,0,1,54.52,44.47Z" transform="translate(-2.02 -8.52)"/></svg>