<svg id="图层_1" data-name="图层 1" xmlns="http://www.w3.org/2000/svg" viewBox="0 0 64.09 71.95"><defs><style>.cls-1{fill:none;stroke:currentColor;stroke-width:3px;}</style></defs><title>订阅</title><path class="cls-1" d="M235.67,309.11a3.26,3.26,0,0,1,.06,2.92c-1.77,2.9-10.37.9-19.22-4.48s-14.59-12.08-12.83-15c1.6-2.63,8.82-1.23,16.75,3.06" transform="translate(-189.53 -289.74)"/><path class="cls-1" d="M241.51,316.59a4.87,4.87,0,1,1,0-6.89A4.86,4.86,0,0,1,241.51,316.59Z" transform="translate(-189.53 -289.74)"/><polygon class="cls-1" points="62.3 20.18 51.78 9.65 35.29 9.37 2.12 42.53 29.42 69.83 62.58 36.66 62.3 20.18"/><path class="cls-1" d="M219.77,331.45c-2.89-2.89-4.06-6.42-2.6-7.88s5-.29,7.88,2.6c2.45,2.45,3.66,5.36,3.08,7.08" transform="translate(-189.53 -289.74)"/><path class="cls-1" d="M219.76,331.45c2.89,2.9,4.05,6.42,2.6,7.88s-5,.29-7.88-2.6c-2.58-2.58-3.78-5.67-3-7.34" transform="translate(-189.53 -289.74)"/><line class="cls-1" x1="38.33" y1="33.77" x2="22.27" y2="49.83"/></svg>