<?xml version="1.0" standalone="no"?><!DOCTYPE svg PUBLIC "-//W3C//DTD SVG 1.1//EN" "http://www.w3.org/Graphics/SVG/1.1/DTD/svg11.dtd"><svg t="1750324066912" class="icon" viewBox="0 0 1024 1024" version="1.1" xmlns="http://www.w3.org/2000/svg" p-id="18760" xmlns:xlink="http://www.w3.org/1999/xlink" width="48" height="48"><path d="M901.76 136.064l-259.776-43.328a23.232 23.232 0 0 1-18.752-17.28L604.352 0H360.96l-18.432 75.328a23.296 23.296 0 0 1-18.752 17.408L64 136.064v50.112h837.76v-50.112M740.8 1024l67.84-791.296H157.12L225.024 1024h515.84zM623.552 348.16a23.68 23.68 0 0 1 24.256-22.336c12.8 0.576 22.784 11.392 22.272 24.192l-23.296 558.592a23.296 23.296 0 0 1-23.232 22.272h-0.96a23.232 23.232 0 0 1-22.272-24.192l23.232-558.592z m-162.944 0.96a23.296 23.296 0 1 1 46.592 0v558.528a23.296 23.296 0 0 1-46.592 0V349.12zM320 325.76a23.68 23.68 0 0 1 24.256 22.272l23.296 558.592c0.512 12.8-9.472 23.68-22.272 24.192h-1.024a23.232 23.232 0 0 1-23.232-22.272l-23.296-558.592A23.232 23.232 0 0 1 320 325.824z" fill="#d81e06" p-id="18761"></path></svg>