<svg id="图层_1" data-name="图层 1" xmlns="http://www.w3.org/2000/svg" viewBox="0 0 61.81 61.8"><defs><style>.cls-1,.cls-2{fill:none;stroke:currentColor;stroke-width:3px;}.cls-1{stroke-miterlimit:10;}.cls-2{stroke-linecap:round;stroke-linejoin:round;}</style></defs><title>头像</title><path class="cls-1" d="M251,325.72a29.41,29.41,0,1,1-29.41-29.4A29.4,29.4,0,0,1,251,325.72Z" transform="translate(-190.67 -294.82)"/><path class="cls-2" d="M215.3,316.27s8,1.14,10.57-5c0,0,2.69,5,6.63,5" transform="translate(-190.67 -294.82)"/><path class="cls-2" d="M215.49,331.28V336s.33,2-11.51,5" transform="translate(-190.67 -294.82)"/><path class="cls-2" d="M227.66,331.28c0,1.48,0,4.67,0,4.67s-.34,2,11.51,5" transform="translate(-190.67 -294.82)"/><path class="cls-2" d="M225.24,332a6,6,0,0,0,2.43-1.1c2.72-1.93,4.4-8,4.91-12.23.75-6.25-.09-13.72-11-14h-.06c-10.89.25-11.72,7.72-11,14,.5,4.24,2.19,10.3,4.91,12.23a6,6,0,0,0,2.42,1.1" transform="translate(-190.67 -294.82)"/></svg>