<svg id="图层_1" data-name="图层 1" xmlns="http://www.w3.org/2000/svg" viewBox="0 0 89.33 89.39"><defs><style>.cls-1{fill-rule:evenodd;}</style></defs><title>刷新图标</title><path class="cls-1" d="M20.52,71.05h0A36.22,36.22,0,0,1,55,23.81c9.57,0,17.14,3.3,24.32,9.35l-4,5.08,14.76-1.62L88.56,21.3l-4,5.19a45.16,45.16,0,0,0-13.76-8.27C38.72,6.12,5.19,33.4,11,67.53a43,43,0,0,0,1.87,7.24v0Zm69-22.1,7.64-3.77v0A43.26,43.26,0,0,1,99,52.47c5.81,34.13-27.71,61.4-59.76,49.3a44.94,44.94,0,0,1-13.76-8.26l-4,5.19L19.89,83.38l14.76-1.63-4,5.09c7.18,6,14.75,9.35,24.32,9.35A36.23,36.23,0,0,0,89.48,49Z" transform="translate(-10.34 -15.3)"/></svg>