<svg id="图层_1" data-name="图层 1" xmlns="http://www.w3.org/2000/svg" viewBox="0 0 62 62"><title>未登录用户头像图标</title><path d="M32,63A31,31,0,1,1,63,32,31,31,0,0,1,32,63ZM32,3A29,29,0,1,0,61,32,29,29,0,0,0,32,3Z" transform="translate(-1 -1)"/><path d="M32,29.51A8.48,8.48,0,1,1,40.48,21,8.49,8.49,0,0,1,32,29.51Zm0-14.95A6.48,6.48,0,1,0,38.48,21,6.49,6.49,0,0,0,32,14.56Z" transform="translate(-1 -1)"/><path d="M48.51,50.44h-2v-.27a14.51,14.51,0,0,0-29,0v.27h-2v-.27a16.51,16.51,0,1,1,33,0Z" transform="translate(-1 -1)"/></svg>